<mxfile host="app.diagrams.net" agent="Mozilla/5.0 (Windows NT 10.0; Win64; x64) AppleWebKit/537.36 (KHTML, like Gecko) Chrome/141.0.0.0 Safari/537.36 Edg/141.0.0.0" version="28.2.5">
  <diagram name="PÃ¡gina-1" id="IRHMoUYt9Ks3O9NO9F-Q">
    <mxGraphModel dx="666" dy="812" grid="1" gridSize="10" guides="1" tooltips="1" connect="1" arrows="1" fold="1" page="1" pageScale="1" pageWidth="827" pageHeight="1169" math="0" shadow="0">
      <root>
        <mxCell id="0" />
        <mxCell id="1" parent="0" />
        <mxCell id="yTBQC41Mj1kL9p5l5KH8-46" style="edgeStyle=orthogonalEdgeStyle;rounded=0;orthogonalLoop=1;jettySize=auto;html=1;entryX=0.5;entryY=1;entryDx=0;entryDy=0;" parent="1" edge="1">
          <mxGeometry relative="1" as="geometry">
            <Array as="points">
              <mxPoint x="915" y="850" />
              <mxPoint x="300" y="850" />
            </Array>
            <mxPoint x="300" y="130" as="targetPoint" />
          </mxGeometry>
        </mxCell>
        <mxCell id="n0Cg8OXJ-iFq7vAQ-mr2-15" value="" style="edgeStyle=orthogonalEdgeStyle;rounded=0;orthogonalLoop=1;jettySize=auto;html=1;" edge="1" parent="1" source="n0Cg8OXJ-iFq7vAQ-mr2-1" target="n0Cg8OXJ-iFq7vAQ-mr2-14">
          <mxGeometry relative="1" as="geometry" />
        </mxCell>
        <mxCell id="n0Cg8OXJ-iFq7vAQ-mr2-1" value="i" style="ellipse;whiteSpace=wrap;html=1;" vertex="1" parent="1">
          <mxGeometry x="60" y="50" width="120" height="80" as="geometry" />
        </mxCell>
        <mxCell id="n0Cg8OXJ-iFq7vAQ-mr2-17" value="" style="edgeStyle=orthogonalEdgeStyle;rounded=0;orthogonalLoop=1;jettySize=auto;html=1;" edge="1" parent="1" source="n0Cg8OXJ-iFq7vAQ-mr2-14" target="n0Cg8OXJ-iFq7vAQ-mr2-16">
          <mxGeometry relative="1" as="geometry" />
        </mxCell>
        <mxCell id="n0Cg8OXJ-iFq7vAQ-mr2-14" value="ler I" style="shape=parallelogram;perimeter=parallelogramPerimeter;whiteSpace=wrap;html=1;fixedSize=1;" vertex="1" parent="1">
          <mxGeometry x="60" y="220" width="120" height="60" as="geometry" />
        </mxCell>
        <mxCell id="n0Cg8OXJ-iFq7vAQ-mr2-19" value="" style="edgeStyle=orthogonalEdgeStyle;rounded=0;orthogonalLoop=1;jettySize=auto;html=1;" edge="1" parent="1" source="n0Cg8OXJ-iFq7vAQ-mr2-16" target="n0Cg8OXJ-iFq7vAQ-mr2-18">
          <mxGeometry relative="1" as="geometry" />
        </mxCell>
        <mxCell id="n0Cg8OXJ-iFq7vAQ-mr2-27" value="" style="edgeStyle=orthogonalEdgeStyle;rounded=0;orthogonalLoop=1;jettySize=auto;html=1;" edge="1" parent="1" source="n0Cg8OXJ-iFq7vAQ-mr2-16" target="n0Cg8OXJ-iFq7vAQ-mr2-26">
          <mxGeometry relative="1" as="geometry" />
        </mxCell>
        <mxCell id="n0Cg8OXJ-iFq7vAQ-mr2-16" value="I&amp;lt;0" style="rhombus;whiteSpace=wrap;html=1;" vertex="1" parent="1">
          <mxGeometry x="280" y="210" width="80" height="80" as="geometry" />
        </mxCell>
        <mxCell id="n0Cg8OXJ-iFq7vAQ-mr2-21" value="" style="edgeStyle=orthogonalEdgeStyle;rounded=0;orthogonalLoop=1;jettySize=auto;html=1;" edge="1" parent="1" source="n0Cg8OXJ-iFq7vAQ-mr2-18" target="n0Cg8OXJ-iFq7vAQ-mr2-20">
          <mxGeometry relative="1" as="geometry" />
        </mxCell>
        <mxCell id="n0Cg8OXJ-iFq7vAQ-mr2-29" value="" style="edgeStyle=orthogonalEdgeStyle;rounded=0;orthogonalLoop=1;jettySize=auto;html=1;" edge="1" parent="1" source="n0Cg8OXJ-iFq7vAQ-mr2-18" target="n0Cg8OXJ-iFq7vAQ-mr2-28">
          <mxGeometry relative="1" as="geometry" />
        </mxCell>
        <mxCell id="n0Cg8OXJ-iFq7vAQ-mr2-18" value="I&amp;lt;17" style="rhombus;whiteSpace=wrap;html=1;" vertex="1" parent="1">
          <mxGeometry x="440" y="210" width="80" height="80" as="geometry" />
        </mxCell>
        <mxCell id="n0Cg8OXJ-iFq7vAQ-mr2-23" value="" style="edgeStyle=orthogonalEdgeStyle;rounded=0;orthogonalLoop=1;jettySize=auto;html=1;" edge="1" parent="1" source="n0Cg8OXJ-iFq7vAQ-mr2-20" target="n0Cg8OXJ-iFq7vAQ-mr2-22">
          <mxGeometry relative="1" as="geometry" />
        </mxCell>
        <mxCell id="n0Cg8OXJ-iFq7vAQ-mr2-31" value="" style="edgeStyle=orthogonalEdgeStyle;rounded=0;orthogonalLoop=1;jettySize=auto;html=1;" edge="1" parent="1" source="n0Cg8OXJ-iFq7vAQ-mr2-20" target="n0Cg8OXJ-iFq7vAQ-mr2-30">
          <mxGeometry relative="1" as="geometry" />
        </mxCell>
        <mxCell id="n0Cg8OXJ-iFq7vAQ-mr2-20" value="I&amp;lt; 65" style="rhombus;whiteSpace=wrap;html=1;" vertex="1" parent="1">
          <mxGeometry x="600" y="210" width="80" height="80" as="geometry" />
        </mxCell>
        <mxCell id="n0Cg8OXJ-iFq7vAQ-mr2-25" value="" style="edgeStyle=orthogonalEdgeStyle;rounded=0;orthogonalLoop=1;jettySize=auto;html=1;" edge="1" parent="1" source="n0Cg8OXJ-iFq7vAQ-mr2-22" target="n0Cg8OXJ-iFq7vAQ-mr2-24">
          <mxGeometry relative="1" as="geometry" />
        </mxCell>
        <mxCell id="n0Cg8OXJ-iFq7vAQ-mr2-33" value="" style="edgeStyle=orthogonalEdgeStyle;rounded=0;orthogonalLoop=1;jettySize=auto;html=1;" edge="1" parent="1" source="n0Cg8OXJ-iFq7vAQ-mr2-22" target="n0Cg8OXJ-iFq7vAQ-mr2-32">
          <mxGeometry relative="1" as="geometry" />
        </mxCell>
        <mxCell id="n0Cg8OXJ-iFq7vAQ-mr2-22" value="I&amp;lt;149" style="rhombus;whiteSpace=wrap;html=1;" vertex="1" parent="1">
          <mxGeometry x="760" y="210" width="80" height="80" as="geometry" />
        </mxCell>
        <mxCell id="n0Cg8OXJ-iFq7vAQ-mr2-35" value="" style="edgeStyle=orthogonalEdgeStyle;rounded=0;orthogonalLoop=1;jettySize=auto;html=1;" edge="1" parent="1" source="n0Cg8OXJ-iFq7vAQ-mr2-24" target="n0Cg8OXJ-iFq7vAQ-mr2-34">
          <mxGeometry relative="1" as="geometry" />
        </mxCell>
        <mxCell id="n0Cg8OXJ-iFq7vAQ-mr2-24" value="&quot;dinossauro&quot;" style="shape=parallelogram;perimeter=parallelogramPerimeter;whiteSpace=wrap;html=1;fixedSize=1;" vertex="1" parent="1">
          <mxGeometry x="900" y="220" width="120" height="60" as="geometry" />
        </mxCell>
        <mxCell id="n0Cg8OXJ-iFq7vAQ-mr2-39" style="edgeStyle=orthogonalEdgeStyle;rounded=0;orthogonalLoop=1;jettySize=auto;html=1;" edge="1" parent="1" source="n0Cg8OXJ-iFq7vAQ-mr2-26" target="n0Cg8OXJ-iFq7vAQ-mr2-34">
          <mxGeometry relative="1" as="geometry">
            <Array as="points">
              <mxPoint x="320" y="510" />
            </Array>
          </mxGeometry>
        </mxCell>
        <mxCell id="n0Cg8OXJ-iFq7vAQ-mr2-26" value="&quot;meteste agua, aguarda o processo." style="shape=parallelogram;perimeter=parallelogramPerimeter;whiteSpace=wrap;html=1;fixedSize=1;" vertex="1" parent="1">
          <mxGeometry x="255" y="385" width="130" height="70" as="geometry" />
        </mxCell>
        <mxCell id="n0Cg8OXJ-iFq7vAQ-mr2-40" style="edgeStyle=orthogonalEdgeStyle;rounded=0;orthogonalLoop=1;jettySize=auto;html=1;" edge="1" parent="1" source="n0Cg8OXJ-iFq7vAQ-mr2-28">
          <mxGeometry relative="1" as="geometry">
            <mxPoint x="480" y="510" as="targetPoint" />
          </mxGeometry>
        </mxCell>
        <mxCell id="n0Cg8OXJ-iFq7vAQ-mr2-28" value="&quot;puto&quot;" style="shape=parallelogram;perimeter=parallelogramPerimeter;whiteSpace=wrap;html=1;fixedSize=1;" vertex="1" parent="1">
          <mxGeometry x="420" y="380" width="120" height="60" as="geometry" />
        </mxCell>
        <mxCell id="n0Cg8OXJ-iFq7vAQ-mr2-41" style="edgeStyle=orthogonalEdgeStyle;rounded=0;orthogonalLoop=1;jettySize=auto;html=1;" edge="1" parent="1" source="n0Cg8OXJ-iFq7vAQ-mr2-30">
          <mxGeometry relative="1" as="geometry">
            <mxPoint x="640" y="510" as="targetPoint" />
          </mxGeometry>
        </mxCell>
        <mxCell id="n0Cg8OXJ-iFq7vAQ-mr2-30" value="&quot;adulto&quot;" style="shape=parallelogram;perimeter=parallelogramPerimeter;whiteSpace=wrap;html=1;fixedSize=1;" vertex="1" parent="1">
          <mxGeometry x="580" y="390" width="120" height="60" as="geometry" />
        </mxCell>
        <mxCell id="n0Cg8OXJ-iFq7vAQ-mr2-42" style="edgeStyle=orthogonalEdgeStyle;rounded=0;orthogonalLoop=1;jettySize=auto;html=1;" edge="1" parent="1" source="n0Cg8OXJ-iFq7vAQ-mr2-32">
          <mxGeometry relative="1" as="geometry">
            <mxPoint x="800.0000000000002" y="520" as="targetPoint" />
          </mxGeometry>
        </mxCell>
        <mxCell id="n0Cg8OXJ-iFq7vAQ-mr2-32" value="&quot;velhinho" style="shape=parallelogram;perimeter=parallelogramPerimeter;whiteSpace=wrap;html=1;fixedSize=1;" vertex="1" parent="1">
          <mxGeometry x="740" y="380" width="120" height="60" as="geometry" />
        </mxCell>
        <mxCell id="n0Cg8OXJ-iFq7vAQ-mr2-34" value="F" style="ellipse;whiteSpace=wrap;html=1;" vertex="1" parent="1">
          <mxGeometry x="920" y="455" width="80" height="80" as="geometry" />
        </mxCell>
      </root>
    </mxGraphModel>
  </diagram>
</mxfile>
